<svg class="icon" viewBox="0 0 1024 1024" xmlns="http://www.w3.org/2000/svg" width="32" height="32"><path d="M832 96H192c-52.928 0-96 43.072-96 96v640c0 52.928 43.072 96 96 96h640c52.928 0 96-43.072 96-96V192c0-52.928-43.072-96-96-96zM727.232 438.432 471.008 697.44c-.064.064-.192.096-.256.192-.096.064-.096.192-.192.256-2.048 1.984-4.576 3.2-6.944 4.544-1.184.672-2.144 1.696-3.392 2.176-3.84 1.536-7.904 2.336-11.968 2.336-4.096 0-8.224-.8-12.096-2.4-1.28-.544-2.304-1.632-3.52-2.304-2.368-1.344-4.832-2.528-6.88-4.544-.064-.064-.096-.192-.16-.256-.064-.096-.192-.096-.256-.192L299.328 567.744c-12.32-12.672-12.032-32.928.64-45.248 12.672-12.288 32.896-12.064 45.248.64L448.48 629.248 681.76 393.44c12.416-12.576 32.704-12.672 45.248-.256 12.512 12.448 12.64 32.704.224 45.248z" fill="#1afa29"/></svg>